<svg width="30" height="34" viewBox="0 0 30 34" fill="none" xmlns="http://www.w3.org/2000/svg">
<path d="M17.375 9.28125C17.375 6.91917 18.3133 4.65383 19.9836 2.98358C21.6538 1.31333 23.9192 0.375 26.2813 0.375H26.875C27.1899 0.375 27.492 0.500111 27.7147 0.722811C27.9374 0.94551 28.0625 1.24756 28.0625 1.5625V15.8125C28.0625 16.0001 28.11 16.6057 28.2026 17.5534C28.2905 18.4677 28.4104 19.6232 28.5387 20.8546L28.5541 21.0007C28.8748 24.0858 29.25 27.7053 29.25 28.875C29.25 30.1348 28.7496 31.343 27.8588 32.2338C26.968 33.1246 25.7598 33.625 24.5 33.625C23.2402 33.625 22.032 33.1246 21.1412 32.2338C20.2504 31.343 19.75 30.1348 19.75 28.875C19.75 27.8799 20.0196 24.8767 20.2939 22.0611C20.4827 20.1196 20.6786 18.2136 20.8057 17H20.3438C19.5564 17 18.8013 16.6872 18.2445 16.1305C17.6878 15.5737 17.375 14.8186 17.375 14.0312V9.28125ZM13.7816 1.29294C13.7179 1.01974 13.5595 0.777925 13.3346 0.61034C13.1096 0.442755 12.8326 0.360225 12.5526 0.377375C11.9232 0.413 11.4256 0.931938 11.4256 1.56963V8.69462C11.4304 9.00799 11.3104 9.31041 11.0922 9.53533C10.8739 9.76026 10.5752 9.88928 10.2619 9.894C9.94851 9.89872 9.6461 9.77877 9.42117 9.56052C9.19624 9.34228 9.06723 9.04362 9.0625 8.73025V1.5625C9.0625 1.24756 8.93739 0.94551 8.71469 0.722811C8.49199 0.500111 8.18995 0.375 7.875 0.375C7.56006 0.375 7.25801 0.500111 7.03531 0.722811C6.81261 0.94551 6.6875 1.24756 6.6875 1.5625V8.76469C6.6681 9.07066 6.53052 9.3571 6.30384 9.56352C6.07715 9.76994 5.77911 9.88017 5.47266 9.87092C5.16622 9.86167 4.87537 9.73367 4.66155 9.51396C4.44772 9.29424 4.32767 9.00002 4.32675 8.69344V1.57081C4.32594 1.27837 4.21799 0.996354 4.02331 0.778116C3.82864 0.559878 3.56074 0.420544 3.27028 0.386468C2.97983 0.352391 2.68695 0.425934 2.44705 0.593187C2.20715 0.76044 2.03686 1.00981 1.96838 1.29412C1.94225 1.40337 0.750003 6.47875 0.750003 9.875C0.749082 10.9484 0.991107 12.0081 1.45794 12.9747C1.92478 13.9412 2.60431 14.7896 3.44563 15.4563C4.03463 15.9241 4.3125 16.4336 4.3125 16.8599C4.31231 16.9051 4.30954 16.9503 4.30419 16.9953C4.23294 17.5938 3.93963 20.0756 3.66413 22.6394C3.39338 25.1605 3.125 27.8775 3.125 28.875C3.125 30.1348 3.62545 31.343 4.51625 32.2338C5.40704 33.1246 6.61522 33.625 7.875 33.625C9.13478 33.625 10.343 33.1246 11.2338 32.2338C12.1246 31.343 12.625 30.1348 12.625 28.875C12.625 27.8787 12.3566 25.1605 12.0859 22.6394C11.8104 20.0756 11.5159 17.5926 11.4446 16.9953C11.4397 16.9503 11.4373 16.9051 11.4375 16.8599C11.4375 16.4336 11.7154 15.9241 12.3044 15.4563C13.1457 14.7896 13.8252 13.9412 14.2921 12.9747C14.7589 12.0081 15.0009 10.9484 15 9.875C15 6.47638 13.8042 1.3915 13.7816 1.29294ZM12.4991 0.380938L12.5229 0.37975H12.5134L12.5039 0.380938H12.4991Z" fill="#FFFBE7"/>
</svg>
