<svg width="28" height="34" viewBox="0 0 28 34" fill="none" xmlns="http://www.w3.org/2000/svg">
<path fill-rule="evenodd" clip-rule="evenodd" d="M16.5785 22.5898C15.9562 24.9153 15.9393 26.8546 16.5283 28.4079C17.6106 31.2633 21.414 32.0851 21.5931 32.8335C21.7723 33.5827 16.5283 33.9647 13.5643 33.9647C10.6009 33.9647 6.96582 33.3995 6.96582 32.8335C6.96582 32.2683 10.4157 31.5178 11.4641 28.355C12.0748 26.5113 12.0083 24.3935 11.2632 22.0028C11.0776 22.0609 10.8843 22.0902 10.6898 22.0897C9.88165 22.0897 9.2085 21.5943 9.06329 20.9402C8.5055 21.3066 7.80657 21.5238 7.04861 21.5238C5.41325 21.5238 4.05543 20.5113 3.78672 19.18C3.55389 19.2349 3.31546 19.2624 3.07625 19.2621C1.61393 19.2621 0.428467 18.2497 0.428467 17.0004C0.428467 16.157 0.96861 15.4214 1.77 15.0326C1.35811 14.7754 1.09075 14.3594 1.09075 13.8905C1.09075 13.7277 1.12265 13.5709 1.18236 13.425C0.728395 13.2235 0.428467 12.8747 0.428467 12.4764C0.428467 11.9831 0.891253 11.5637 1.5359 11.409C0.860717 10.9951 0.428467 10.3599 0.428467 9.64945C0.428467 8.52099 1.51622 7.5866 2.9385 7.41492C2.6031 7.00916 2.41806 6.50006 2.41465 5.97363C2.41465 4.56831 3.74804 3.42899 5.39357 3.42899C5.55915 3.42899 5.722 3.44053 5.88079 3.46292C6.27775 2.4566 7.39197 1.73256 8.70365 1.73256C9.06804 1.73256 9.41682 1.7882 9.73982 1.89067C9.96375 0.836168 11.0454 0.0361328 12.3442 0.0361328C13.6728 0.0361328 14.7735 0.872133 14.9635 1.96124C15.4486 1.47538 16.1713 1.16731 16.9788 1.16731C18.4411 1.16731 19.6266 2.17974 19.6266 3.42899C19.6266 3.8497 19.4916 4.24395 19.2575 4.58188C19.3776 4.56763 19.5011 4.56017 19.6266 4.56017C20.9878 4.56017 22.1102 5.43756 22.2581 6.56738C22.6746 6.36088 23.1335 6.25446 23.5983 6.2566C25.0613 6.2566 26.2468 7.26903 26.2468 8.51828C26.2468 9.36988 25.6958 10.1116 24.8815 10.4977C25.6958 10.8831 26.2468 11.6248 26.2468 12.4764C26.2468 13.216 25.8308 13.8736 25.1882 14.2861C25.4365 14.5698 25.5845 14.922 25.5845 15.304C25.5845 15.4506 25.5628 15.5924 25.522 15.7274C26.7435 16.3062 27.5706 17.4191 27.5706 18.6968C27.5706 20.5704 25.7928 22.0897 23.5983 22.0897C23.051 22.0913 22.508 21.9939 21.9955 21.802C21.3943 22.3286 20.5549 22.655 19.6266 22.655C18.9165 22.6605 18.2201 22.4601 17.6214 22.0782C17.3364 22.3204 16.9788 22.4996 16.5785 22.5898Z" fill="#FFFBE7"/>
</svg>
