<svg width="70" height="70" viewBox="0 0 70 70" fill="none" xmlns="http://www.w3.org/2000/svg">
<g clip-path="url(#clip0_307_85)">
<path d="M34.9615 -0.120101C34.4421 -0.122901 34.1572 0.231299 34.0774 0.645699L31.9319 7.8823C26.8249 8.45434 21.9849 10.4634 17.9739 13.6762C15.7458 12.4666 13.5184 11.2514 11.2889 10.0481C10.8759 9.8255 10.5147 9.843 10.1801 10.179C9.84554 10.515 9.94074 11.0099 10.1297 11.3669L13.7018 17.9469C10.4725 21.963 8.45255 26.8151 7.87784 31.9364C5.44184 32.6588 3.00234 33.3749 0.569845 34.1022C0.121845 34.2366 -0.121755 34.504 -0.120355 34.9786C-0.118955 35.4525 0.297545 35.736 0.683945 35.855L7.87364 37.9851C8.43241 43.1174 10.4422 47.9841 13.6675 52.0152C12.4516 54.2566 11.2287 56.4966 10.0184 58.7387C9.79655 59.1517 9.81404 59.5115 10.15 59.8461C10.486 60.1807 10.9809 60.0869 11.3379 59.8979L17.955 56.3069C21.9696 59.5309 26.8179 61.5473 31.9347 62.1211C32.6571 64.5571 33.3746 66.9973 34.1019 69.4305C34.2363 69.8785 34.5037 70.1221 34.9783 70.1207C35.4522 70.1193 35.7357 69.7028 35.8547 69.3164L37.9848 62.1267C43.1288 61.5661 48.005 59.5458 52.038 56.3041L58.6824 59.9119C59.1647 60.1569 59.4902 60.2003 59.8598 59.8349C60.2287 59.4702 60.1804 59.0173 59.9438 58.668L56.327 52.0012C59.5454 47.974 61.5525 43.1146 62.1138 37.99L69.3427 35.848C69.8565 35.6807 70.1176 35.4812 70.1197 34.9618C70.1232 34.4424 69.7691 34.1575 69.3546 34.0777L62.0935 31.9252C61.52 26.8141 59.5085 21.9705 56.2926 17.9567L59.8829 11.3438C60.1279 10.8622 60.1713 10.536 59.8059 10.1664C59.3831 9.7989 59.0282 9.9095 58.639 10.0831L52.0135 13.6804C47.9863 10.4465 43.1192 8.43005 37.9848 7.8683L35.847 0.658299C35.6797 0.143799 35.4809 -0.117301 34.9615 -0.120101ZM34.9594 3.5465V30.8003C34.2496 30.8072 33.5532 30.9938 32.935 31.3428L28.5642 25.8044L34.9594 3.5465ZM38.6344 10.0642C42.7595 10.6608 46.6706 12.2768 50.0136 14.7661L41.4113 19.4351L38.6344 10.0642ZM31.2795 10.0859L28.5187 19.3994C25.6725 17.8517 22.8256 16.311 19.9787 14.7647C23.3014 12.2961 27.1836 10.6887 31.2788 10.0859M12.7421 12.7424L26.4397 26.4141L26.4327 26.4351L21.1995 27.9863L12.7421 12.7424ZM43.5421 26.4274L43.4763 26.4092L41.937 21.2152L57.211 12.7592L43.5421 26.4274ZM55.2111 19.9475C57.6929 23.2774 59.3086 27.1717 59.913 31.2805L50.5638 28.5085L55.2111 19.9475ZM14.7889 19.9545L19.4334 28.5106L10.0758 31.284C10.6836 27.1752 12.3032 23.282 14.7889 19.9545ZM44.107 28.5407L66.4524 34.9604H39.2C39.1931 34.243 39.0025 33.5393 38.6463 32.9164L44.107 28.5407ZM30.8 34.9604V35.0003C30.8002 35.7009 30.9756 36.3903 31.3103 37.0058L25.781 41.3577L20.3014 39.7883L3.50424 34.9786L30.8 34.9604ZM59.9361 38.634C59.3399 42.7554 57.7258 46.6632 55.2398 50.0041L50.575 41.4081L59.9361 38.634ZM10.0737 38.6368L19.4222 41.4067C17.8633 44.2739 16.3121 47.1418 14.7546 50.0097C12.2741 46.6663 10.6654 42.7577 10.0737 38.6368ZM37.0258 38.6781L41.3805 44.1311L39.7971 49.659L34.9769 66.4961L34.9587 39.1989C35.6986 39.2003 36.4658 39.0071 37.0258 38.6781ZM48.7935 41.9359L57.2663 57.2414L43.5232 43.4983L48.7935 41.9359ZM26.4264 43.5438L27.9874 48.8092L12.712 57.2841L26.4264 43.5438ZM41.4176 50.5382L50.0402 55.2212C46.6898 57.7148 42.7693 59.3318 38.6351 59.9252L41.4176 50.5382ZM28.511 50.5753C29.4329 53.6931 30.3604 56.806 31.283 59.9231C27.1785 59.3155 23.2892 57.6982 19.964 55.2163L28.511 50.5753Z" fill="#FFFBE7"/>
</g>
<defs>
<clipPath id="clip0_307_85">
<rect width="70" height="70" fill="white"/>
</clipPath>
</defs>
</svg>
