<svg width="19" height="19" viewBox="0 0 19 19" fill="none" xmlns="http://www.w3.org/2000/svg">
<path d="M6 0C4.4087 0 2.88258 0.632141 1.75736 1.75736C0.632141 2.88258 0 4.4087 0 6V13C0 14.5913 0.632141 16.1174 1.75736 17.2426C2.88258 18.3679 4.4087 19 6 19H13C14.5913 19 16.1174 18.3679 17.2426 17.2426C18.3679 16.1174 19 14.5913 19 13V8C19 7.73478 18.8946 7.48043 18.7071 7.29289C18.5196 7.10536 18.2652 7 18 7H17C16.7348 7 16.4804 6.89464 16.2929 6.70711C16.1054 6.51957 16 6.26522 16 6C16 4.4087 15.3679 2.88258 14.2426 1.75736C13.1174 0.632141 11.5913 0 10 0H6ZM6 5H10C10.55 5 11 5.45 11 6C11 6.55 10.55 7 10 7H6C5.45 7 5 6.55 5 6C5 5.45 5.45 5 6 5ZM6 12H13C13.55 12 14 12.45 14 13C14 13.55 13.55 14 13 14H6C5.45 14 5 13.55 5 13C5 12.45 5.45 12 6 12Z" fill="#A57E67"/>
</svg>
